<?xml version="1.0" encoding="UTF-8"?>
<!DOCTYPE svg PUBLIC "-//W3C//DTD SVG 1.1//EN" "http://www.w3.org/Graphics/SVG/1.1/DTD/svg11.dtd">
<!-- Creator: CorelDRAW 2019 (64 Bit) -->
<svg xmlns="http://www.w3.org/2000/svg" xml:space="preserve" width="78.74mm" height="78.74mm" version="1.1" style="shape-rendering:geometricPrecision; text-rendering:geometricPrecision; image-rendering:optimizeQuality; fill-rule:evenodd; clip-rule:evenodd"
viewBox="0 0 2531.87 2531.87"
 xmlns:xlink="http://www.w3.org/1999/xlink">
 <defs>
  <style type="text/css">
   <![CDATA[
    .fil0 {fill:#3399CC}
    .fil1 {fill:white}
   ]]>
  </style>
 </defs>
 <g id="Camada_x0020_1">
  <metadata id="CorelCorpID_0Corel-Layer"/>
  <circle class="fil0" cx="1265.93" cy="1265.93" r="1265.93"/>
  <path class="fil1" d="M2035.89 752.05c-117.04,33.84 -68.04,213.75 41.34,185.29 42.36,-11.02 239.76,-50.42 226.3,-106.99 -10.14,-42.66 -211.99,-94.39 -267.65,-78.3z"/>
  <path class="fil1" d="M96.37 780.79c-9.28,22.34 -17.92,45.02 -25.93,67.98 38.54,-18.71 83.58,-36.25 136.27,-52.2 86.07,-26.07 457.08,25.61 599.49,47.39 32.17,4.92 -74.08,-33.34 -54.45,-27.23 6.44,2.25 -172.14,-64.02 -249.8,-82.36 -60.85,-14.05 -201.12,-13.26 -266.75,1.47 -50.61,11.35 -96.46,25.78 -138.83,44.95zm-86.93 640.01c11.09,90.68 31.74,178.4 60.93,262.12 23.78,12.25 48.04,22.91 71.77,31.5 40.48,14.65 164.06,47.09 202.31,38.92 15.01,-3.67 18.03,0.54 30.72,1.5 14.35,1.08 13.67,-5 29.22,-1.3 15.8,5.05 79.94,-6.13 99.13,-9.72 29.64,-5.54 60.41,-13.85 86.86,-23.41 37.44,-13.53 54.64,-12.03 80.15,-35.99 -213.11,-48.58 -446.12,11.56 -661.09,-263.61z"/>
  <path class="fil1" d="M410.33 332.98c-30.26,27.78 -59.17,57 -86.61,87.57 147.61,-8.03 300.51,24.69 425.26,91.22 42.84,22.84 78.68,45.72 115.35,71.02 32.33,22.28 129.39,101.05 145.52,133.89 32.6,66.39 26,121.44 -14.87,178.08 -39.4,54.61 -200.32,144.18 -260.1,165.24 -2.71,3.79 -68.7,38.19 -77.87,43.18 -48.03,26.12 -109.38,69.93 -138.63,115.82 -19.6,30.74 -26.09,39.65 11.88,82.88 104.87,119.36 350.87,230.75 414.16,343.18 47.61,84.61 13.79,144.67 -40.64,198.36l-51.65 44.64c-66.06,51.44 -181.85,95.1 -267.27,114.64 -112.63,25.77 -231.36,25.95 -345.57,3.93 26.85,37.14 55.63,72.79 86.26,106.75 5.59,-0.32 10.59,-0.97 14.88,-2 23.02,-6.35 27.65,0.93 47.1,2.58 22.01,1.88 20.96,-8.63 44.81,-2.24 24.23,8.72 122.57,-10.6 152,-16.8 45.45,-9.59 92.62,-23.95 133.19,-40.47 88.99,-36.24 123.94,-66.99 172.41,-88.26 19.04,-8.35 41.06,-20.3 56.31,-30.64 168.81,-114.36 213.43,-320.09 42.22,-437 -75.88,-51.81 -133.9,-34.09 -235.56,-109.04 -208.2,-153.49 202.76,-374.78 314,-435.22 18.23,-9.9 36.37,-20.3 56.44,-30.46 14.5,-7.34 15.01,-5.96 19.52,-24.18 2.84,-11.47 6.41,-26.08 4.12,-37.52 -4.12,-18.04 1.14,-8.25 0.6,-25.7 -0.44,-14.56 -4.87,-4.67 -0.66,-22.36 10.39,-56.82 -62.2,-158.19 -85.27,-186.47 -107.83,-132.24 -308.5,-233.34 -479.72,-277.85 -41.03,-10.67 -104.83,-15.98 -171.62,-16.77z"/>
  <path class="fil1" d="M2035.89 752.05c-117.04,33.84 -68.04,213.75 41.34,185.29 42.36,-11.02 239.76,-50.42 226.3,-106.99 -10.14,-42.66 -211.99,-94.39 -267.65,-78.3z"/>
  <path class="fil1" d="M2206.27 2113.44c30.69,-34.04 59.55,-69.77 86.45,-107 -114.54,22.23 -233.65,22.12 -346.63,-3.73 -85.42,-19.54 -201.21,-63.21 -267.27,-114.64l-51.65 -44.64c-54.43,-53.69 -88.26,-113.74 -40.63,-198.36 63.28,-112.44 309.29,-223.82 414.16,-343.18 37.97,-43.23 31.48,-52.14 11.87,-82.88 -29.24,-45.89 -90.59,-89.7 -138.62,-115.82 -9.18,-4.99 -75.16,-39.39 -77.88,-43.18 -59.78,-21.06 -220.69,-110.63 -260.09,-165.24 -40.88,-56.64 -47.46,-111.69 -14.86,-178.08 16.13,-32.85 113.19,-111.61 145.52,-133.89 36.67,-25.29 72.52,-48.17 115.36,-71.02 125.02,-66.68 278.31,-99.39 426.23,-91.16 -27.62,-30.77 -56.71,-60.19 -87.19,-88.13 -67.42,0.96 -131.29,6.68 -172,17.26 -171.22,44.51 -371.89,145.61 -479.73,277.85 -23.06,28.28 -95.66,129.65 -85.26,186.47 4.21,17.69 -0.23,7.79 -0.67,22.36 -0.53,17.45 4.72,7.67 0.61,25.7 -2.3,11.44 1.28,26.05 4.11,37.52 4.51,18.23 5.02,16.84 19.52,24.18 20.08,10.16 38.22,20.55 56.45,30.46 111.24,60.45 522.19,281.74 313.99,435.22 -101.66,74.94 -159.68,57.23 -235.55,109.04 -171.2,116.91 -126.58,322.64 42.22,437 15.25,10.33 37.27,22.28 56.32,30.64 48.46,21.27 83.42,52.02 172.4,88.26 40.56,16.52 87.73,30.88 133.19,40.47 29.42,6.2 127.77,25.52 152,16.8 23.84,-6.39 22.81,4.13 44.81,2.24 19.46,-1.65 24.08,-8.93 47.1,-2.58 4.51,1.09 9.81,1.75 15.75,2.05z"/>
  <path class="fil1" d="M584.35 2094.91c45.45,-9.59 92.62,-23.95 133.19,-40.47 88.99,-36.24 123.94,-66.99 172.41,-88.26 19.04,-8.35 41.06,-20.3 56.31,-30.64 168.81,-114.36 213.43,-320.09 42.22,-437 -75.88,-51.81 -133.9,-34.09 -235.56,-109.04 -208.2,-153.49 202.76,-374.78 314,-435.22 18.23,-9.9 36.37,-20.3 56.44,-30.46 14.5,-7.34 15.01,-5.96 19.52,-24.18 2.84,-11.47 6.41,-26.08 4.12,-37.52 -4.12,-18.04 1.14,-8.25 0.6,-25.7 -0.44,-14.56 -4.87,-4.67 -0.66,-22.36 10.39,-56.82 -62.2,-158.19 -85.27,-186.47 -107.83,-132.24 -308.5,-233.34 -479.72,-277.85 -41.03,-10.67 -104.83,-15.98 -171.62,-16.77 -30.26,27.78 -59.17,57 -86.61,87.57 147.62,-8.03 300.51,24.69 425.26,91.22 42.84,22.84 78.68,45.72 115.35,71.02 32.33,22.28 129.39,101.05 145.52,133.89 32.6,66.39 26,121.44 -14.87,178.08 -39.4,54.61 -200.32,144.18 -260.1,165.24 -2.71,3.79 -68.7,38.19 -77.87,43.18 -48.03,26.12 -109.38,69.93 -138.63,115.82 -19.6,30.74 -26.09,39.65 11.88,82.88 104.87,119.36 350.87,230.75 414.16,343.18 47.61,84.61 13.79,144.67 -40.64,198.36l-51.65 44.64c-66.06,51.44 -181.85,95.1 -267.27,114.64 -112.63,25.77 -231.36,25.96 -345.57,3.93 26.85,37.14 55.63,72.79 86.26,106.76 5.59,-0.32 10.59,-0.98 14.88,-2.01 23.02,-6.35 27.65,0.93 47.1,2.58 22.01,1.88 20.96,-8.63 44.81,-2.24 24.23,8.72 122.57,-10.6 152,-16.8z"/>
  <path class="fil1" d="M142.14 1714.41c40.48,14.65 164.06,47.09 202.31,38.92 15.01,-3.67 18.03,0.54 30.72,1.5 14.35,1.08 13.67,-5 29.22,-1.3 15.8,5.05 79.94,-6.13 99.13,-9.72 29.64,-5.54 60.41,-13.85 86.86,-23.41 37.44,-13.53 54.64,-12.03 80.15,-35.99 -213.11,-48.58 -446.12,11.6 -661.08,-263.56 11.09,90.66 31.74,178.36 60.93,262.06 23.78,12.25 48.04,22.91 71.77,31.5z"/>
  <path class="fil1" d="M206.71 796.57c86.07,-26.07 457.08,25.61 599.49,47.39 32.17,4.92 -74.08,-33.34 -54.45,-27.23 6.44,2.25 -172.14,-64.02 -249.8,-82.36 -60.85,-14.05 -201.12,-13.26 -266.75,1.47 -50.61,11.35 -96.46,25.78 -138.83,44.95 -9.27,22.32 -17.89,44.96 -25.9,67.89 38.03,-18.45 82.51,-35.74 134.29,-51.52 0.65,-0.2 1.29,-0.4 1.94,-0.59z"/>
  <path class="fil1" d="M1542.48 1498.55c-171.2,116.91 -126.58,322.64 42.22,437 15.25,10.33 37.27,22.28 56.32,30.64 48.46,21.27 83.42,52.02 172.4,88.26 40.56,16.52 87.73,30.88 133.19,40.47 29.42,6.2 127.77,25.52 152,16.8 23.84,-6.39 22.81,4.13 44.81,2.24 19.46,-1.65 24.08,-8.93 47.1,-2.58 4.51,1.09 9.8,1.76 15.75,2.05 30.69,-34.04 59.55,-69.77 86.45,-106.99 -114.54,22.23 -233.65,22.11 -346.63,-3.73 -85.42,-19.54 -201.21,-63.21 -267.27,-114.64l-51.65 -44.64c-54.43,-53.69 -88.26,-113.74 -40.63,-198.36 63.28,-112.44 309.29,-223.82 414.16,-343.18 37.97,-43.23 31.48,-52.14 11.87,-82.88 -29.24,-45.89 -90.59,-89.7 -138.62,-115.82 -9.18,-4.99 -75.16,-39.39 -77.88,-43.18 -59.78,-21.06 -220.69,-110.63 -260.09,-165.24 -40.88,-56.64 -47.46,-111.69 -14.86,-178.08 16.13,-32.85 113.19,-111.61 145.52,-133.89 36.67,-25.29 72.52,-48.17 115.36,-71.02 125.02,-66.68 278.31,-99.4 426.23,-91.16 -27.62,-30.77 -56.71,-60.19 -87.19,-88.13 -67.43,0.96 -131.29,6.68 -172,17.26 -171.22,44.51 -371.89,145.61 -479.73,277.85 -23.06,28.28 -95.66,129.65 -85.26,186.47 4.21,17.69 -0.23,7.79 -0.67,22.36 -0.53,17.45 4.72,7.67 0.61,25.7 -2.3,11.44 1.28,26.05 4.11,37.52 4.51,18.23 5.02,16.84 19.52,24.18 20.08,10.16 38.22,20.55 56.45,30.46 111.24,60.45 522.19,281.74 313.99,435.22 -101.66,74.94 -159.68,57.23 -235.55,109.04z"/>
  <path class="fil1" d="M2035.89 752.05c-117.04,33.84 -68.04,213.75 41.34,185.29 42.36,-11.02 239.76,-50.42 226.3,-106.99 -10.14,-42.66 -211.99,-94.39 -267.65,-78.3z"/>
 </g>
</svg>
